<svg class="img-fluid" id="outputsvg" xmlns="http://www.w3.org/2000/svg" style="transform: matrix(0.60113, 0, 0, 0.60113, 0, 0); transform-origin: 50% 50%; cursor: move; max-height: none; transition: transform 200ms ease-in-out;" width="100" height="100" viewBox="0 0 1000 1000">
  <g id="l3SnlR3UfeLPETszoMK8hyq" fill="rgb(76,88,91)" style="transform: none;">
    <g style="transform: none;">
      <path id="pabNxpe6E" d="M416 890 c-68 -12 -161 -48 -181 -70 -11 -12 -15 -32 -13 -61 l3 -44 95 -1 c95 0 169 -15 276 -55 62 -24 76 -48 47 -88 -34 -47 -81 -62 -237 -75 -88 -7 -150 -17 -160 -25 -11 -9 -16 -30 -16 -63 0 -61 15 -76 136 -140 142 -74 290 -130 338 -126 l41 3 0 49 c0 48 0 49 -40 61 -22 6 -67 25 -100 42 -66 34 -67 33 46 48 137 18 232 163 215 329 -15 144 -110 213 -306 221 -52 2 -117 0 -144 -5z"/>
    </g>
  </g>
  <g id="l4GWlTpAadhrickpJOdRuKn" fill="rgb(242,239,231)" style="transform: none;">
    <g style="transform: none;">
      <path id="pknU8aIP6" d="M0 500 l0 -500 500 0 500 0 0 500 0 500 -500 0 -500 0 0 -500z m672 344 c67 -23 107 -53 135 -101 75 -129 -10 -322 -160 -364 -23 -7 -86 -12 -140 -12 -96 -1 -98 -1 -75 -19 38 -29 237 -128 259 -128 23 0 36 -27 21 -42 -14 -14 -164 42 -305 115 -110 57 -147 86 -147 116 0 35 38 48 155 56 156 9 203 21 242 60 28 28 33 40 33 78 0 59 -13 71 -108 101 -117 37 -196 49 -263 42 -48 -5 -61 -3 -66 9 -9 24 23 51 86 75 111 41 240 47 333 14z"/>
    </g>
  </g>
</svg>
